<svg aria-hidden="true" style="position: absolute; width: 0; height: 0; overflow: hidden;" version="1.1" xmlns="http://www.w3.org/2000/svg" xmlns:xlink="http://www.w3.org/1999/xlink">
<defs>

<symbol id="icon-play3" viewBox="0 0 32 32">
<title>play3</title>
<path d="M6 4l20 12-20 12z"></path>
</symbol>

<symbol id="icon-instagram" viewBox="0 0 512.00096 512.00096">
<title>instagram</title>
<path d="m373.40625 0h-234.8125c-76.421875 0-138.59375 62.171875-138.59375 138.59375v234.816406c0 76.417969 62.171875 138.589844 138.59375 138.589844h234.816406c76.417969 0 138.589844-62.171875 138.589844-138.589844v-234.816406c0-76.421875-62.171875-138.59375-138.59375-138.59375zm108.578125 373.410156c0 59.867188-48.707031 108.574219-108.578125 108.574219h-234.8125c-59.871094 0-108.578125-48.707031-108.578125-108.574219v-234.816406c0-59.871094 48.707031-108.578125 108.578125-108.578125h234.816406c59.867188 0 108.574219 48.707031 108.574219 108.578125zm0 0"/><path d="m256 116.003906c-77.195312 0-139.996094 62.800782-139.996094 139.996094s62.800782 139.996094 139.996094 139.996094 139.996094-62.800782 139.996094-139.996094-62.800782-139.996094-139.996094-139.996094zm0 249.976563c-60.640625 0-109.980469-49.335938-109.980469-109.980469 0-60.640625 49.339844-109.980469 109.980469-109.980469 60.644531 0 109.980469 49.339844 109.980469 109.980469 0 60.644531-49.335938 109.980469-109.980469 109.980469zm0 0"/><path d="m399.34375 66.285156c-22.8125 0-41.367188 18.558594-41.367188 41.367188 0 22.8125 18.554688 41.371094 41.367188 41.371094s41.371094-18.558594 41.371094-41.371094-18.558594-41.367188-41.371094-41.367188zm0 52.71875c-6.257812 0-11.351562-5.09375-11.351562-11.351562 0-6.261719 5.09375-11.351563 11.351562-11.351563 6.261719 0 11.355469 5.089844 11.355469 11.351563 0 6.257812-5.09375 11.351562-11.355469 11.351562zm0 0"/>
</symbol>

<symbol id="icon-youtube" viewBox="0 0 24 24">
<title>youtube</title>
<path d="m9.939 7.856c-.497-.297-1.134.062-1.134.644v7c0 .585.638.939 1.134.645l5.869-3.495c.488-.291.487-.997.001-1.289zm.366 6.325v-4.36l3.655 2.183z"/><path d="m19.904 3.271c-4.653-.691-11.153-.691-15.808 0-1.862.276-3.329 1.738-3.649 3.636-.596 3.523-.596 6.664 0 10.186.32 1.899 1.787 3.36 3.649 3.636 2.332.346 5.124.519 7.915.519 2.786 0 5.571-.172 7.894-.518 1.86-.276 3.326-1.737 3.648-3.636.596-3.523.596-6.665 0-10.188-.32-1.897-1.787-3.359-3.649-3.635zm2.17 13.573c-.213 1.256-1.173 2.222-2.39 2.402-4.518.671-10.838.671-15.368-.001-1.218-.181-2.179-1.146-2.391-2.402-.574-3.394-.574-6.291 0-9.687.213-1.256 1.173-2.22 2.392-2.402 2.262-.335 4.973-.503 7.682-.503 2.711 0 5.422.168 7.684.503 1.218.181 2.179 1.146 2.391 2.402.574 3.396.574 6.293 0 9.688z"/>
</symbol>

<symbol id="icon-building" viewBox="0 0 512 512">
<title>premium</title>
<path d="M471.982,417.008Q472,416.5,472,416a32.036,32.036,0,0,0-32-32V236l28.8-21.6a8,8,0,0,0-.08-12.859L400,151.322V64a8,8,0,0,0,8-8V24a8,8,0,0,0-8-8H320a8,8,0,0,0-8,8V56a8,8,0,0,0,8,8V92.861l-59.28-43.32a8,8,0,0,0-9.44,0l-208,152A8,8,0,0,0,43.2,214.4L72,236V384a32.036,32.036,0,0,0-32,32q0,.5.018,1.008A32,32,0,0,0,48,480H464a32,32,0,0,0,7.982-62.992ZM328,32h64V48H328Zm8,72V64h48v75.63L335.243,104ZM256,65.908,450.555,208.084l-18.628,13.971L260.706,97.53a8,8,0,0,0-9.412,0L80.073,222.055,61.445,208.084ZM32,448a16.019,16.019,0,0,1,15.76-16l.019,0c.409.057.818.106,1.235.133a8,8,0,0,0,8.023-10.716A15.727,15.727,0,0,1,56,416a16.019,16.019,0,0,1,16-16v64H48A16.019,16.019,0,0,1,32,448Zm344,16H280V288h96Zm16,0V280a8,8,0,0,0-8-8H272a8,8,0,0,0-8,8V464H88V236.074L256,113.892,424,236.074V464Zm72,0H440V400a16.019,16.019,0,0,1,16,16,15.727,15.727,0,0,1-1.037,5.421,8,8,0,0,0,8.023,10.716c.417-.027.826-.076,1.235-.133l.019,0a16,16,0,0,1-.24,32Z"/><path d="M224,272H128a8,8,0,0,0-8,8V392a8,8,0,0,0,8,8h96a8,8,0,0,0,8-8V280A8,8,0,0,0,224,272Zm-8,56H184V288h32Zm-48-40v40H136V288Zm-32,56h32v40H136Zm48,40V344h32v40Z"/><circle cx="304" cy="368" r="8" transform="translate(-152.323 508.032) rotate(-67.5)"/>
</symbol>

<symbol id="icon-company" viewBox="0 0 512 512" >
<title>luxury</title>
<path  d="m464 488h-8v-408a8 8 0 0 0 -8-8h-48v-40a8 8 0 0 0 -8-8h-176a8 8 0 0 0 -8 8v40h-48a8 8 0 0 0 -8 8v408h-56v-56.581a56 56 0 0 0 26.654-99.412 40 40 0 1 0 -69.308 0 56 56 0 0 0 26.654 99.412v17.268l-10.343-10.344a8 8 0 0 0 -11.314 11.314l20 20a8.015 8.015 0 0 0 1.657 1.262v17.081h-64a8 8 0 0 0 0 16h448a8 8 0 0 0 0-16zm-376-128a8 8 0 0 0 -8 8v47.2a40.007 40.007 0 0 1 -11.372-74.2 8 8 0 0 0 1.934-12.5 24 24 0 1 1 34.876 0 8 8 0 0 0 1.934 12.5 40.007 40.007 0 0 1 -11.372 74.2v-47.2a8 8 0 0 0 -8-8zm136-320h160v32h-160zm72 448h-24v-96h24zm40 0h-24v-96h24zm104 0h-88v-104a8 8 0 0 0 -8-8h-80a8 8 0 0 0 -8 8v104h-88v-400h272z"/><path d="m496 488h-8a8 8 0 0 0 0 16h8a8 8 0 0 0 0-16z"/><path d="m336 280h-64a8 8 0 0 0 -8 8v64a8 8 0 0 0 8 8h64a8 8 0 0 0 8-8v-64a8 8 0 0 0 -8-8zm-8 64h-48v-48h48z"/><path d="m248 280h-64a8 8 0 0 0 -8 8v64a8 8 0 0 0 8 8h64a8 8 0 0 0 8-8v-64a8 8 0 0 0 -8-8zm-8 64h-48v-48h48z"/><path d="m424 280h-64a8 8 0 0 0 -8 8v64a8 8 0 0 0 8 8h64a8 8 0 0 0 8-8v-64a8 8 0 0 0 -8-8zm-8 64h-48v-48h48z"/><path d="m336 192h-64a8 8 0 0 0 -8 8v64a8 8 0 0 0 8 8h64a8 8 0 0 0 8-8v-64a8 8 0 0 0 -8-8zm-8 64h-48v-48h48z"/><path d="m248 192h-64a8 8 0 0 0 -8 8v64a8 8 0 0 0 8 8h64a8 8 0 0 0 8-8v-64a8 8 0 0 0 -8-8zm-8 64h-48v-48h48z"/><path d="m424 192h-64a8 8 0 0 0 -8 8v64a8 8 0 0 0 8 8h64a8 8 0 0 0 8-8v-64a8 8 0 0 0 -8-8zm-8 64h-48v-48h48z"/><path d="m336 104h-64a8 8 0 0 0 -8 8v64a8 8 0 0 0 8 8h64a8 8 0 0 0 8-8v-64a8 8 0 0 0 -8-8zm-8 64h-48v-48h48z"/><path d="m248 104h-64a8 8 0 0 0 -8 8v64a8 8 0 0 0 8 8h64a8 8 0 0 0 8-8v-64a8 8 0 0 0 -8-8zm-8 64h-48v-48h48z"/><path d="m352 112v64a8 8 0 0 0 8 8h64a8 8 0 0 0 8-8v-64a8 8 0 0 0 -8-8h-64a8 8 0 0 0 -8 8zm16 8h48v48h-48z"/><path d="m96 336a8 8 0 0 0 -16 0v8a8 8 0 0 0 16 0z"/>
</symbol>

<symbol id="icon-mansion" viewBox="0 0 512 512" >
<title>deluxe</title>
<g>
	<g>
		<path d="M504.5,484.976h-8.532V219.93c0-4.142-3.358-7.5-7.5-7.5c-4.142,0-7.5,3.358-7.5,7.5v265.046H327.629v-24.564
			c0-4.142-3.358-7.5-7.5-7.5h-16.548V348.186c0-4.142-3.358-7.5-7.5-7.5H215.92c-4.142,0-7.5,3.358-7.5,7.5v104.726h-16.548
			c-4.142,0-7.5,3.358-7.5,7.5v24.564H31.033v-8.531c0-4.142-3.358-7.5-7.5-7.5c-4.142,0-7.5,3.358-7.5,7.5v8.531H7.5
			c-4.142,0-7.5,3.358-7.5,7.5c0,4.143,3.358,7.5,7.5,7.5h497c4.142,0,7.5-3.357,7.5-7.5C512,488.334,508.642,484.976,504.5,484.976
			z M223.42,355.686h65.161v97.226H223.42V355.686z M312.629,484.976H199.371v-17.064h113.258V484.976z"/>
	</g>
</g>
<g>
	<g>
		<path d="M183.855,420.847h-0.516v-72.661c0-4.142-3.358-7.5-7.5-7.5H63.613c-4.142,0-7.5,3.358-7.5,7.5v72.661h-0.516
			c-4.142,0-7.5,3.358-7.5,7.5c0,4.142,3.358,7.5,7.5,7.5h128.258c4.142,0,7.5-3.358,7.5-7.5
			C191.355,424.205,187.997,420.847,183.855,420.847z M112.226,420.847H71.113v-65.161h41.113V420.847z M168.339,420.847h-41.113
			v-65.161h41.113V420.847z"/>
	</g>
</g>
<g>
	<g>
		<path d="M456.403,420.847h-0.516v-72.661c0-4.142-3.358-7.5-7.5-7.5H336.161c-4.142,0-7.5,3.358-7.5,7.5v72.661h-0.516
			c-4.142,0-7.5,3.358-7.5,7.5c0,4.142,3.358,7.5,7.5,7.5h128.258c4.142,0,7.5-3.358,7.5-7.5
			C463.903,424.205,460.545,420.847,456.403,420.847z M384.775,420.847h-41.113v-65.161h41.113V420.847z M440.888,420.847h-41.113
			v-65.161h41.113V420.847z"/>
	</g>
</g>
<g>
	<g>
		<path d="M264.016,372.75h-16.032c-4.142,0-7.5,3.358-7.5,7.5c0,4.142,3.358,7.5,7.5,7.5h16.032c4.142,0,7.5-3.358,7.5-7.5
			C271.516,376.108,268.159,372.75,264.016,372.75z"/>
	</g>
</g>
<g>
	<g>
		<path d="M296.081,212.428H215.92c-4.142,0-7.5,3.357-7.5,7.5v80.161c0,4.142,3.358,7.5,7.5,7.5h80.161c4.142,0,7.5-3.358,7.5-7.5
			v-80.161C303.581,215.786,300.223,212.428,296.081,212.428z M248.5,292.589h-25.08v-65.161h25.08V292.589z M288.581,292.589H263.5
			v-65.161h25.081V292.589z"/>
	</g>
</g>
<g>
	<g>
		<path d="M296.081,84.17H215.92c-4.142,0-7.5,3.358-7.5,7.5v80.161c0,4.142,3.358,7.5,7.5,7.5h80.161c4.142,0,7.5-3.358,7.5-7.5
			V91.67C303.581,87.528,300.223,84.17,296.081,84.17z M248.5,164.331h-25.08V99.17h25.08V164.331z M288.581,164.331H263.5V99.17
			h25.081V164.331z"/>
	</g>
</g>
<g>
	<g>
		<path d="M448.387,212.428H336.161c-4.142,0-7.5,3.357-7.5,7.5v80.161c0,4.142,3.358,7.5,7.5,7.5h112.226
			c4.142,0,7.5-3.358,7.5-7.5v-80.161C455.887,215.785,452.529,212.428,448.387,212.428z M384.774,292.589h-41.113v-65.161h41.113
			V292.589z M440.888,292.589h-41.113v-65.161h41.113V292.589z"/>
	</g>
</g>
<g>
	<g>
		<path d="M175.839,212.428H63.613c-4.142,0-7.5,3.357-7.5,7.5v80.161c0,4.142,3.358,7.5,7.5,7.5h112.226c4.142,0,7.5-3.358,7.5-7.5
			v-80.161C183.339,215.785,179.981,212.428,175.839,212.428z M112.226,292.589H71.113v-65.161h41.113V292.589z M168.339,292.589
			h-41.113v-65.161h41.113V292.589z"/>
	</g>
</g>
<g>
	<g>
		<path d="M510.029,166.763L423.823,72.72V43.057h0.516c4.142,0,7.5-3.358,7.5-7.5c0-4.143-3.358-7.5-7.5-7.5h-48.097
			c-4.142,0-7.5,3.357-7.5,7.5c0,4.142,3.358,7.5,7.5,7.5h0.517v25.081h-33.097v-8.533c0-2.841-1.605-5.438-4.146-6.708
			l-80.161-40.081c-2.111-1.056-4.597-1.056-6.708,0l-80.161,40.081c-2.541,1.271-4.146,3.867-4.146,6.708v8.533h-33.097V43.057
			h0.517c4.142,0,7.5-3.358,7.5-7.5c0-4.143-3.358-7.5-7.5-7.5H87.661c-4.142,0-7.5,3.357-7.5,7.5c0,4.142,3.358,7.5,7.5,7.5h0.516
			V72.72L1.972,166.763c-2.01,2.192-2.534,5.365-1.336,8.088c1.198,2.723,3.89,4.48,6.864,4.48h8.532v265.046
			c0,4.142,3.358,7.5,7.5,7.5c4.142,0,7.5-3.358,7.5-7.5V179.331h144.807c4.142,0,7.5-3.358,7.5-7.5V64.241L256,27.91l72.661,36.331
			v107.59c0,4.142,3.358,7.5,7.5,7.5h144.807v8.531c0,4.142,3.358,7.5,7.5,7.5c4.142,0,7.5-3.358,7.5-7.5v-8.531h8.532
			c2.974,0,5.667-1.757,6.865-4.48C512.563,172.128,512.038,168.955,510.029,166.763z M103.178,43.057h17.064v25.081h-17.064V43.057
			z M168.339,164.331H24.55l74.427-81.193h69.362V164.331z M391.759,43.057h17.064v25.081h-17.064V43.057z M343.66,164.331V83.138
			h0.001h69.362l74.427,81.193H343.66z"/>
	</g>
</g>
<g>
</g>
<g>
</g>
<g>
</g>
<g>
</g>
<g>
</g>
<g>
</g>
<g>
</g>
<g>
</g>
<g>
</g>
<g>
</g>
<g>
</g>
<g>
</g>
<g>
</g>
<g>
</g>
<g>
</g>
</symbol>

</defs>
</svg>
