<?xml version="1.0" encoding="utf-8"?>
<!-- Generator: Adobe Illustrator 21.1.0, SVG Export Plug-In . SVG Version: 6.00 Build 0)  -->
<svg version="1.1" id="Layer_1" xmlns="http://www.w3.org/2000/svg" xmlns:xlink="http://www.w3.org/1999/xlink" x="0px" y="0px"
	 viewBox="0 0 495 212" enable-background="new 0 0 495 212" xml:space="preserve">
<g>
	<g>
		<path fill="#121C26" d="M46.126,114.051c-1.546,0-2.846-0.528-3.901-1.582c-1.054-1.055-1.581-2.355-1.581-3.902V37.18
			c0-1.617,0.528-2.935,1.581-3.954c1.055-1.02,2.355-1.53,3.901-1.53c1.618,0,2.936,0.51,3.955,1.53
			c1.019,1.019,1.528,2.337,1.528,3.954v71.387c0,1.547-0.51,2.847-1.528,3.902C49.062,113.523,47.744,114.051,46.126,114.051
			L46.126,114.051z"/>
		<path fill="#121C26" d="M96.158,55.738c4.85,0,9.208,1.054,13.075,3.163c3.866,2.109,6.889,5.185,9.068,9.227
			c2.18,4.042,3.269,8.91,3.269,14.604v25.941c0,1.546-0.51,2.829-1.529,3.848c-1.02,1.02-2.303,1.53-3.849,1.53
			s-2.83-0.51-3.848-1.53c-1.02-1.02-1.53-2.302-1.53-3.848V82.732c0-5.694-1.528-10-4.587-12.917
			c-3.058-2.918-7.118-4.377-12.179-4.377c-2.953,0-5.642,0.598-8.067,1.793c-2.425,1.195-4.323,2.812-5.693,4.85
			c-1.372,2.038-2.057,4.324-2.057,6.854v29.737c0,1.546-0.491,2.829-1.476,3.848c-0.984,1.02-2.285,1.53-3.902,1.53
			c-1.546,0-2.829-0.51-3.848-1.53c-1.02-1.02-1.529-2.302-1.529-3.848v-47.03c0-1.617,0.51-2.918,1.529-3.902
			c1.02-0.983,2.302-1.476,3.848-1.476c1.617,0,2.918,0.492,3.902,1.476c0.984,0.984,1.476,2.286,1.476,3.902v1.16
			c2.25-2.25,4.921-3.989,8.014-5.22C89.339,56.353,92.643,55.738,96.158,55.738L96.158,55.738z"/>
		<path fill="#121C26" d="M143.454,114.051c-1.547,0-2.847-0.528-3.901-1.582c-1.055-1.055-1.582-2.355-1.582-3.902V37.18
			c0-1.617,0.527-2.935,1.582-3.954c1.054-1.02,2.354-1.53,3.901-1.53h47.662c1.617,0,2.918,0.475,3.901,1.424
			c0.984,0.949,1.477,2.197,1.477,3.743c0,1.477-0.492,2.672-1.477,3.586c-0.983,0.914-2.284,1.371-3.901,1.371h-42.179v25.623
			h30.264c1.546,0,2.83,0.475,3.849,1.424c1.019,0.949,1.529,2.162,1.529,3.638c0,1.476-0.51,2.689-1.529,3.638
			c-1.02,0.949-2.303,1.424-3.849,1.424h-30.264v31.001c0,1.547-0.527,2.847-1.581,3.902
			C146.302,113.523,145.001,114.051,143.454,114.051L143.454,114.051z"/>
		<path fill="#121C26" d="M301.564,114.472c-5.554,0-10.545-1.265-14.974-3.796c-4.429-2.53-7.892-6.028-10.387-10.492
			c-2.495-4.464-3.743-9.437-3.743-14.921c0-5.624,1.213-10.667,3.637-15.131c2.426-4.464,5.818-7.944,10.176-10.44
			c4.358-2.495,9.279-3.743,14.763-3.743c8.295,0,15.184,3.163,20.667,9.49c0.703,0.774,1.055,1.687,1.055,2.741
			c0,1.547-0.774,2.847-2.32,3.901c-0.703,0.492-1.512,0.738-2.426,0.738c-1.617,0-2.987-0.632-4.112-1.898
			c-1.758-1.897-3.673-3.286-5.747-4.165c-2.074-0.879-4.446-1.318-7.117-1.318c-5.413,0-9.806,1.81-13.181,5.431
			c-3.374,3.62-5.061,8.418-5.061,14.393c0,3.796,0.79,7.188,2.373,10.176c1.581,2.987,3.796,5.325,6.643,7.012
			c2.847,1.687,6.098,2.531,9.755,2.531c4.78,0,8.647-1.231,11.599-3.691c1.335-0.984,2.637-1.477,3.901-1.477
			c0.984,0,1.898,0.317,2.742,0.949c1.335,1.124,2.003,2.39,2.003,3.796c0,1.054-0.422,2.003-1.266,2.847
			C315.482,112.117,309.155,114.472,301.564,114.472L301.564,114.472z"/>
		<path fill="#121C26" d="M386.343,56.265c1.617,0,2.918,0.492,3.901,1.477c0.984,0.984,1.477,2.285,1.477,3.901v47.03
			c0,1.546-0.492,2.83-1.477,3.849c-0.983,1.019-2.284,1.529-3.901,1.529c-1.546,0-2.83-0.51-3.849-1.529
			c-1.019-1.02-1.528-2.303-1.528-3.849v-1.16c-2.249,2.249-4.921,3.989-8.014,5.22c-3.092,1.229-6.397,1.845-9.912,1.845
			c-4.851,0-9.209-1.055-13.075-3.164c-3.867-2.109-6.89-5.185-9.069-9.226c-2.179-4.042-3.269-8.91-3.269-14.605v-25.94
			c0-1.546,0.51-2.83,1.53-3.848c1.019-1.02,2.302-1.53,3.848-1.53c1.547,0,2.83,0.51,3.849,1.53
			c1.02,1.019,1.529,2.302,1.529,3.848v25.94c0,5.695,1.529,10,4.587,12.917c3.058,2.917,7.117,4.376,12.179,4.376
			c2.952,0,5.642-0.597,8.066-1.792c2.426-1.195,4.324-2.812,5.695-4.85c1.371-2.039,2.056-4.324,2.056-6.854V61.643
			c0-1.617,0.51-2.917,1.528-3.901C383.514,56.758,384.797,56.265,386.343,56.265L386.343,56.265z"/>
		<path fill="#121C26" d="M431.685,114.472c-4.781,0-9.28-0.738-13.498-2.214c-4.218-1.477-7.521-3.41-9.912-5.801
			c-0.914-0.914-1.371-2.003-1.371-3.269c0-1.687,0.703-3.057,2.109-4.112c1.335-0.984,2.566-1.477,3.69-1.477
			c1.406,0,2.742,0.633,4.007,1.898c1.335,1.477,3.338,2.759,6.01,3.849c2.672,1.089,5.518,1.634,8.541,1.634
			c4.007,0,7.118-0.668,9.333-2.004c2.214-1.335,3.321-3.128,3.321-5.378c0-2.179-1.089-3.99-3.269-5.43
			c-2.179-1.441-5.87-2.654-11.072-3.639c-13.498-2.601-20.246-8.154-20.246-16.661c0-3.444,1.02-6.361,3.058-8.752
			c2.038-2.39,4.71-4.183,8.014-5.378c3.304-1.195,6.819-1.792,10.545-1.792c4.569,0,8.664,0.738,12.284,2.214
			c3.621,1.477,6.486,3.515,8.595,6.116c0.914,1.124,1.371,2.249,1.371,3.374c0,1.195-0.598,2.285-1.793,3.269
			c-0.772,0.563-1.757,0.844-2.952,0.844c-1.828,0-3.48-0.668-4.956-2.004c-1.757-1.617-3.62-2.759-5.588-3.427
			c-1.969-0.668-4.358-1.002-7.17-1.002c-3.234,0-5.888,0.545-7.961,1.634c-2.074,1.09-3.111,2.619-3.111,4.588
			c0,1.406,0.352,2.583,1.055,3.533s2.038,1.828,4.006,2.636c1.969,0.809,4.816,1.6,8.542,2.373
			c7.662,1.547,13.093,3.69,16.292,6.433c3.199,2.741,4.798,6.292,4.798,10.65c0,3.233-0.879,6.169-2.636,8.805
			c-1.758,2.636-4.34,4.71-7.75,6.221C440.561,113.716,436.465,114.472,431.685,114.472L431.685,114.472z"/>
		<path fill-rule="evenodd" clip-rule="evenodd" fill="#FFFFFF" d="M230.333,80.575c2.561,0,4.637,2.076,4.637,4.637
			c0,2.561-2.076,4.637-4.637,4.637c-2.561,0-4.637-2.076-4.637-4.637C225.696,82.651,227.772,80.575,230.333,80.575L230.333,80.575
			z"/>
		<g>
			<path fill-rule="evenodd" clip-rule="evenodd" fill="#BC9260" d="M230.333,47.906c20.603,0,37.305,16.703,37.305,37.305
				c0,20.603-16.702,37.305-37.305,37.305c-20.603,0-37.305-16.702-37.305-37.305C193.028,64.609,209.73,47.906,230.333,47.906
				L230.333,47.906z M230.333,57.041c15.558,0,28.171,12.612,28.171,28.171c0,15.558-12.612,28.171-28.171,28.171
				c-15.559,0-28.171-12.612-28.171-28.171C202.163,69.653,214.775,57.041,230.333,57.041L230.333,57.041z"/>
			<path fill-rule="evenodd" clip-rule="evenodd" fill="#121C26" d="M230.333,58.804c14.584,0,26.408,11.823,26.408,26.408
				c0,14.584-11.823,26.408-26.408,26.408c-14.584,0-26.408-11.823-26.408-26.408C203.926,70.627,215.749,58.804,230.333,58.804
				L230.333,58.804z"/>
			<path fill="#121C26" d="M296.783,117.153c-3.624,7.526-8.489,14.341-14.328,20.18c-13.338,13.338-31.769,21.59-52.122,21.59
				c-20.353,0-38.784-8.252-52.122-21.59c-13.338-13.338-21.59-31.769-21.59-52.122c0-1.565,0.049-3.117,0.145-4.658h7.484
				c-0.107,1.539-0.162,3.091-0.162,4.658c0,18.293,7.415,34.855,19.402,46.842c11.987,11.987,28.549,19.403,46.842,19.403
				c18.293,0,34.855-7.415,46.842-19.403c4.891-4.891,9.02-10.544,12.195-16.765c1.157,0.444,2.344,0.82,3.562,1.129
				C294.186,116.735,295.471,116.981,296.783,117.153L296.783,117.153z"/>
			<path fill="#121C26" d="M230.333,11.5c20.353,0,38.784,8.251,52.122,21.59c5.824,5.824,10.678,12.619,14.299,20.12
				c-1.451,0.171-2.866,0.431-4.244,0.782c-1.096,0.278-2.167,0.611-3.212,1c-3.166-6.164-7.269-11.769-12.122-16.622
				c-11.987-11.987-28.549-19.402-46.842-19.402c-13.13,0-25.367,3.82-35.662,10.409c-1.06-0.446-2.246-0.668-3.555-0.668h-8.121
				C195.802,17.969,212.314,11.5,230.333,11.5L230.333,11.5z"/>
			<path fill-rule="evenodd" clip-rule="evenodd" fill="#121C26" d="M257.56,30.562c5.566,0,10.079,4.512,10.079,10.079
				c0,5.566-4.513,10.079-10.079,10.079c-5.567,0-10.079-4.512-10.079-10.079C247.481,35.074,251.994,30.562,257.56,30.562
				L257.56,30.562z"/>
			<path fill-rule="evenodd" clip-rule="evenodd" fill="#FFFFFF" d="M238.845,64.455c3.768,0,6.822,3.054,6.822,6.822
				c0,3.768-3.054,6.822-6.822,6.822c-3.767,0-6.822-3.054-6.822-6.822C232.023,67.509,235.078,64.455,238.845,64.455
				L238.845,64.455z"/>
			<g>
				<rect x="47.643" y="177.5" fill-rule="evenodd" clip-rule="evenodd" fill="none" width="395" height="23"/>
				<path fill="#BC9260" d="M60.586,195.5l-5.041-7.104h-1.728v7.104h-2.304v-16.802h4.992c2.568,0,5.737,1.345,5.737,4.825
					c0,2.855-2.041,4.296-4.104,4.728l5.329,7.249H60.586z M56.386,180.763h-2.568v5.568h2.088c2.232,0,3.889-0.815,3.889-2.736
					C59.794,181.891,58.426,180.763,56.386,180.763z"/>
				<path fill="#BC9260" d="M71.505,195.5v-16.802h10.081v2.064h-7.776v5.04h7.776v2.064h-7.776v5.568h7.776v2.064H71.505z"/>
				<path fill="#BC9260" d="M101.434,195.5l-1.32-3.576h-7.153l-1.296,3.576h-2.521l6.505-16.802h2.016l6.433,16.802H101.434z
					 M93.729,189.859h5.641l-2.808-7.656h-0.024L93.729,189.859z"/>
				<path fill="#BC9260" d="M112.136,195.5v-16.802h2.304v14.737h7.296v2.064H112.136z"/>
				<path fill="#BC9260" d="M140.696,195.5v-16.802h10.081v2.064H143v5.04h7.776v2.064H143v5.568h7.776v2.064H140.696z"/>
				<path fill="#BC9260" d="M165.081,180.475c-1.776,0-3,0.84-3,2.328c0,1.464,1.656,2.017,3.504,2.664
					c2.376,0.841,5.088,1.944,5.088,5.089c0,3.769-3.336,5.232-5.904,5.232c-2.448,0-4.296-0.769-6.073-2.521l1.632-1.536
					c1.584,1.561,2.784,1.992,4.464,1.992c1.728,0,3.432-0.84,3.432-2.904c0-1.848-1.8-2.496-3.744-3.168
					c-2.28-0.792-4.729-1.92-4.729-4.608c0-3.168,2.328-4.633,5.064-4.633c2.016,0,3.696,0.576,5.208,1.729l-1.416,1.68
					C167.817,181.075,166.401,180.475,165.081,180.475z"/>
				<path fill="#BC9260" d="M184.521,180.763V195.5h-2.304v-14.737h-4.225v-2.064h10.753v2.064H184.521z"/>
				<path fill="#BC9260" d="M206.193,195.5l-1.32-3.576h-7.153l-1.296,3.576h-2.521l6.505-16.802h2.016l6.433,16.802H206.193z
					 M198.489,189.859h5.641l-2.808-7.656h-0.024L198.489,189.859z"/>
				<path fill="#BC9260" d="M220.545,180.763V195.5h-2.304v-14.737h-4.225v-2.064h10.753v2.064H220.545z"/>
				<path fill="#BC9260" d="M232.808,195.5v-16.802h10.081v2.064h-7.776v5.04h7.776v2.064h-7.776v5.568h7.776v2.064H232.808z"/>
				<path fill="#BC9260" d="M272.841,195.5h-1.608l-5.641-14.186V195.5h-2.304v-16.802h3.648l5.112,13.13l5.185-13.13h3.648V195.5
					h-2.305v-14.186L272.841,195.5z"/>
				<path fill="#BC9260" d="M301.209,195.5l-1.32-3.576h-7.152l-1.297,3.576h-2.52l6.504-16.802h2.017l6.433,16.802H301.209z
					 M293.504,189.859h5.641l-2.809-7.656h-0.023L293.504,189.859z"/>
				<path fill="#BC9260" d="M320.983,195.5l-5.04-7.104h-1.729v7.104h-2.304v-16.802h4.992c2.568,0,5.736,1.345,5.736,4.825
					c0,2.855-2.04,4.296-4.104,4.728l5.329,7.249H320.983z M316.783,180.763h-2.568v5.568h2.089c2.231,0,3.888-0.815,3.888-2.736
					C320.191,181.891,318.823,180.763,316.783,180.763z"/>
				<path fill="#BC9260" d="M338.719,185.323l5.929,10.177h-2.688l-4.8-8.305l-2.713,3.24v5.064h-2.304v-16.802h2.304v8.569
					l7.057-8.569h2.809L338.719,185.323z"/>
				<path fill="#BC9260" d="M352.326,195.5v-16.802h10.081v2.064h-7.777v5.04h7.777v2.064h-7.777v5.568h7.777v2.064H352.326z"/>
				<path fill="#BC9260" d="M376.254,180.763V195.5h-2.305v-14.737h-4.224v-2.064h10.753v2.064H376.254z"/>
				<path fill="#BC9260" d="M388.518,195.5v-16.802h2.304V195.5H388.518z"/>
				<path fill="#BC9260" d="M412.183,195.5l-9.217-12.529V195.5h-2.304v-16.802h2.016l9.241,12.529v-12.529h2.305V195.5H412.183z"/>
				<path fill="#BC9260" d="M432.559,188.251v-2.063h6.576v6.384c-1.608,2.041-4.128,3.217-6.889,3.217
					c-5.137,0-9.024-3.48-9.024-8.688c0-4.969,4.056-8.689,9.024-8.689c2.593,0,4.896,1.152,6.505,2.977l-1.633,1.344
					c-1.176-1.319-2.952-2.256-4.872-2.256c-3.792,0-6.576,2.784-6.576,6.625c0,4.08,2.736,6.624,6.576,6.624
					c1.776,0,3.408-0.624,4.584-1.752v-3.721H432.559z"/>
			</g>
		</g>
	</g>
</g>
</svg>
